<svg width="104" height="23" viewBox="0 0 104 23" fill="none" xmlns="http://www.w3.org/2000/svg">
<path d="M18.9651 22.439H5.63306V0.032023H5.60006V-0.000976562H0.914062V23H18.9651V22.439Z" fill="white"/>
<path d="M22.9312 23H41.0482V22.439H27.6173V11.285H38.1112V10.691H27.6173V0.560024H41.0482V-0.000976562H22.9312V23Z" fill="white"/>
<path d="M49.6989 23V0.560024C52.5699 0.560024 61.4139 1.64902 62.0739 14.453V23H66.7599V-0.000976562H62.0739V10.328C60.6549 4.19002 56.1669 -0.000976562 49.6989 -0.000976562H45.0129V23H49.6989Z" fill="white"/>
<path d="M76.3889 23V0.560024C79.2599 0.560024 88.1039 1.64902 88.7639 14.453V23H93.4499V-0.000976562H88.7639V10.328C87.3449 4.19002 82.8569 -0.000976562 76.3889 -0.000976562H71.7029V23H76.3889Z" fill="white"/>
<path d="M98.393 23H103.079V-0.000976562H98.393V23Z" fill="white"/>
</svg>
